PathFileType        4      (X/Y/Z)      Static.trc         
DataRate	CameraRate	NumFrames	NumMarkers	Units	OrigDataRate	OrigDataStartFrame	OrigNumFrames
100.0	100.0	11	37	mm	100.0	234	267
Frame#	Time	T2			T10			MANU			LASI			RASI			SACR			LTHI			LKAX			LKD1			LKD2			LKNE			LTIB			LANK			LMED			LHEE			LTOE			LD1M			LD5M			RTHI			RKAX			RKD1			RKD2			RKNE			RTIB			RANK			RMED			RHEE			RTOE			RD1M			RD5M			RHJC			LHJC			RKJC			LKJC			MASI			RAJC			LAJC			
		X1	Y1	Z1	X2	Y2	Z2	X3	Y3	Z3	X4	Y4	Z4	X5	Y5	Z5	X6	Y6	Z6	X7	Y7	Z7	X8	Y8	Z8	X9	Y9	Z9	X10	Y10	Z10	X11	Y11	Z11	X12	Y12	Z12	X13	Y13	Z13	X14	Y14	Z14	X15	Y15	Z15	X16	Y16	Z16	X17	Y17	Z17	X18	Y18	Z18	X19	Y19	Z19	X20	Y20	Z20	X21	Y21	Z21	X22	Y22	Z22	X23	Y23	Z23	X24	Y24	Z24	X25	Y25	Z25	X26	Y26	Z26	X27	Y27	Z27	X28	Y28	Z28	X29	Y29	Z29	X30	Y30	Z30	X31	Y31	Z31	X32	Y32	Z32	X33	Y33	Z33	X34	Y34	Z34	X35	Y35	Z35	X36	Y36	Z36	X37	Y37	Z37	
234	2.33	271.51019	1101.26656	-2.3227	286.37027	917.77866	0.68259	386.54885	1088.55712	2.97724	433.62828	722.19007	-74.41068	434.11515	736.832	97.31719	296.35991	769.61665	4.80713	392.5072	431.00739	-155.64278	387.76304	381.02019	-216.78349	479.39354	391.2179	-122.20781	410.25571	279.41821	-137.23709	388.52877	369.01622	-124.61917	319.589	159.50169	-183.42582	295.1414	68.55212	-145.71238	316.296	71.33054	-71.70256	245.54134	20.36281	-109.70044	421.74662	30.71277	-135.3581	416.8741	16.66263	-85.17473	381.48748	17.13831	-176.42141	404.49157	446.83221	168.9428	408.49612	354.97068	228.42894	482.43386	412.94744	123.72391	454.61869	283.88867	121.73161	401.27758	361.20758	130.47613	308.02809	148.21069	156.55347	293.63499	62.01388	112.13769	321.7836	69.3979	39.50591	250.88358	19.52032	68.42231	423.75008	28.57104	108.18084	414.03763	13.99081	52.67974	384.04883	15.39487	147.48414	373.84745	687.6255	79.60383	373.48487	676.7215	-48.28372	397.79359	364.21778	83.19981	388.91598	362.94616	-78.0144	433.87172	729.51104	11.45326	305.27701	57.64607	75.62259	303.47237	62.0302	-109.53618	
235	2.34	271.51068	1101.18909	-2.33385	286.50754	917.69721	0.66798	386.55443	1088.55059	3.02176	433.8649	722.15729	-74.38698	434.31213	736.8105	97.33942	296.56555	769.60016	4.80961	392.66671	430.97633	-155.61115	387.92056	380.98228	-216.76138	479.53241	391.14958	-122.17376	410.35101	279.37391	-137.20405	388.6608	368.98456	-124.59856	319.6239	159.50623	-183.41428	295.15157	68.55468	-145.70077	316.32798	71.34233	-71.66684	245.5422	20.37042	-109.69795	421.74778	30.71191	-135.35265	416.87597	16.65993	-85.16953	381.48337	17.14157	-176.4145	404.58078	446.80655	168.94335	408.55735	354.94765	228.42777	482.50183	412.90886	123.72515	454.65878	283.85918	121.7297	401.33665	361.18822	130.47823	308.03789	148.21202	156.5526	293.63663	62.01802	112.13587	321.78549	69.39757	39.49921	250.88343	19.52094	68.42312	423.75067	28.57419	108.17796	414.03746	13.98799	52.68001	384.04832	15.39661	147.48191	374.04325	687.60645	79.6152	373.7102	676.69405	-48.2713	397.85152	364.20028	83.20211	389.03513	362.9175	-77.9933	434.08851	729.48389	11.47622	305.27727	57.6485	75.61815	303.4908	62.03834	-109.51245	
236	2.35	271.50885	1101.11367	-2.35045	286.6391	917.61683	0.65039	386.5552	1088.54709	3.0746	434.10706	722.12455	-74.36377	434.516	736.78696	97.35711	296.77478	769.5865	4.8114	392.82034	430.94597	-155.57947	388.07144	380.94362	-216.73864	479.66522	391.07569	-122.13847	410.43827	279.32766	-137.1708	388.78659	368.95063	-124.57699	319.6566	159.51167	-183.40195	295.1604	68.55793	-145.69025	316.36689	71.35671	-71.62663	245.54258	20.37812	-109.69514	421.74936	30.71059	-135.34842	416.87908	16.65683	-85.16313	381.47983	17.14506	-176.40665	404.67704	446.77952	168.94202	408.61957	354.92555	228.42484	482.56789	412.86814	123.7225	454.69525	283.82909	121.72599	401.3939	361.16862	130.47936	308.05012	148.21172	156.5512	293.63665	62.02183	112.1347	321.78712	69.39749	39.49366	250.88286	19.52189	68.42334	423.75072	28.57704	108.17635	414.0356	13.9846	52.68219	384.04704	15.39982	147.48087	374.24443	687.58824	79.62252	373.93989	676.66895	-48.26029	397.90624	364.18199	83.20352	389.14824	362.88584	-77.97133	434.31153	729.45575	11.49667	305.27663	57.6509	75.61467	303.51226	62.04825	-109.48699	
237	2.36	271.50902	1101.03884	-2.37242	286.76904	917.53696	0.62979	386.55296	1088.54726	3.13628	434.35313	722.09289	-74.34258	434.72766	736.762	97.3692	296.9915	769.57364	4.81188	392.96678	430.91529	-155.54924	388.21246	380.90484	-216.71548	479.79267	390.99783	-122.1061	410.51794	279.28098	-137.14074	388.90684	368.91494	-124.55556	319.68843	159.51637	-183.38967	295.169	68.56115	-145.68199	316.40659	71.3689	-71.58917	245.54232	20.38559	-109.69182	421.75162	30.70793	-135.34511	416.88388	16.65321	-85.15679	381.47755	17.14823	-176.39882	404.78388	446.75038	168.93863	408.68706	354.9045	228.41966	482.63658	412.82506	123.7133	454.73057	283.79769	121.71912	401.45252	361.14905	130.47838	308.06635	148.20875	156.54797	293.63738	62.02412	112.13263	321.78943	69.39665	39.48841	250.88305	19.52282	68.42241	423.75037	28.57837	108.1755	414.03387	13.97996	52.68379	384.04553	15.4035	147.47979	374.45316	687.57048	79.62546	374.17424	676.64613	-48.2513	397.96047	364.16324	83.20291	389.25799	362.85157	-77.94963	434.54039	729.42744	11.51331	305.27673	57.65216	75.61092	303.5341	62.05709	-109.4641	
238	2.37	271.5136	1100.96342	-2.39772	286.90194	917.4574	0.6066	386.54957	1088.55108	3.20701	434.6017	722.06312	-74.32448	434.94789	736.73721	97.37676	297.21769	769.56015	4.81112	393.10554	430.88346	-155.5216	388.3418	380.86724	-216.69231	479.9158	390.9179	-122.08021	410.59164	279.23551	-137.11636	389.02285	368.87837	-124.53517	319.7201	159.51895	-183.37783	295.17837	68.56344	-145.67614	316.44169	71.37554	-71.55944	245.54154	20.39251	-109.68826	421.75488	30.70357	-135.34198	416.89017	16.64908	-85.15133	381.47657	17.15033	-176.39156	404.90277	446.71973	168.93405	408.7633	354.88424	228.41255	482.7109	412.77985	123.69686	454.76775	283.7652	121.70771	401.51529	361.12981	130.47504	308.08632	148.20326	156.54253	293.64021	62.02429	112.12887	321.79292	69.39448	39.48294	250.88472	19.52393	68.4203	423.74974	28.57751	108.17485	414.03393	13.97344	52.68293	384.04416	15.40631	147.4779	374.67106	687.55312	79.62581	374.41325	676.62499	-48.24395	398.01663	364.14458	83.20009	389.36728	362.81532	-77.92916	434.7748	729.40017	11.52614	305.27847	57.65163	75.60626	303.55399	62.06265	-109.44638	
239	2.38	271.52255	1100.88727	-2.42299	287.04164	917.37865	0.58205	386.54715	1088.55805	3.28707	434.85086	722.03543	-74.3088	435.17683	736.71452	97.38286	297.45389	769.54522	4.80996	393.23747	430.85037	-155.4968	388.45916	380.83259	-216.6692	480.03594	390.83818	-122.06195	410.66135	279.1926	-137.09816	389.13588	368.8423	-124.51566	319.75143	159.5192	-183.36613	295.18932	68.56449	-145.67174	316.4693	71.37589	-71.53767	245.54095	20.39906	-109.68507	421.75936	30.69797	-135.33822	416.89699	16.64408	-85.14654	381.47628	17.15106	-176.38478	405.03242	446.68902	168.92994	408.84971	354.86431	228.40448	482.79141	412.73322	123.67456	454.80938	283.73249	121.69133	401.58355	361.11095	130.47012	308.10897	148.19636	156.5358	293.64472	62.02274	112.1241	321.79725	69.39109	39.47783	250.88766	19.52594	68.41739	423.74893	28.5745	108.17447	414.03615	13.96586	52.67941	384.04304	15.40753	147.47546	374.89862	687.53657	79.62747	374.65586	676.60466	-48.23594	398.07608	364.12629	83.19586	389.47813	362.77831	-77.90975	435.01385	729.37497	11.53703	305.28139	57.64959	75.6013	303.5708	62.06437	-109.43347	
240	2.39	271.53513	1100.81141	-2.44419	287.19174	917.30168	0.55778	386.54886	1088.56799	3.37553	435.09897	722.01018	-74.29459	435.41494	736.69698	97.39047	297.69936	769.52858	4.80945	393.36553	430.81733	-155.47517	388.56631	380.80303	-216.64622	480.15467	390.76181	-122.05051	410.72946	279.15375	-137.08556	389.24724	368.80876	-124.49657	319.78205	159.51855	-183.35451	295.20208	68.56544	-145.66709	316.48925	71.37198	-71.52159	245.54173	20.40575	-109.68255	421.76497	30.69269	-135.33376	416.90342	16.63838	-85.14233	381.47633	17.15142	-176.37864	405.16912	446.66048	168.92722	408.94556	354.84487	228.396	482.87687	412.68696	123.64765	454.85687	283.7011	121.66973	401.65708	361.093	130.46393	308.1331	148.19028	156.52863	293.64938	62.0212	112.11917	321.80143	69.38774	39.47381	250.89091	19.52976	68.41437	423.74827	28.57052	108.17407	414.03965	13.95944	52.67451	384.04168	15.4077	147.47266	375.13653	687.52227	79.63459	374.90121	676.58457	-48.2244	398.13882	364.10907	83.19052	389.59162	362.74253	-77.89097	435.25695	729.35358	11.54794	305.28425	57.64755	75.59685	303.58452	62.06382	-109.42333	
241	2.4	271.5516	1100.73704	-2.45742	287.35491	917.2276	0.53495	386.55853	1088.58103	3.47032	435.34561	721.98805	-74.28159	435.6624	736.68839	97.40155	297.95196	769.51052	4.80964	393.49415	430.78638	-155.45727	388.66679	380.77997	-216.62347	480.27337	390.69175	-122.04382	410.79869	279.12001	-137.07739	389.35825	368.77933	-124.47762	319.81183	159.51902	-183.34345	295.21567	68.56829	-145.66044	316.50291	71.36711	-71.50917	245.54487	20.41291	-109.68026	421.77113	30.68958	-135.32893	416.90869	16.63226	-85.13933	381.47687	17.15319	-176.37363	405.30804	446.63659	168.92532	409.04829	354.82652	228.3869	482.96492	412.64328	123.61691	454.90981	283.67257	121.64267	401.73414	361.07683	130.45612	308.15728	148.18777	156.52135	293.65326	62.02193	112.11439	321.80459	69.38602	39.47115	250.89385	19.53587	68.41193	423.74827	28.56732	108.17283	414.04305	13.95621	52.67003	384.03951	15.40797	147.46948	375.38515	687.51223	79.64998	375.14923	676.56445	-48.20764	398.20351	364.09393	83.1837	389.70797	362.7097	-77.8725	435.50401	729.33822	11.55998	305.28611	57.64745	75.59322	303.59538	62.06366	-109.41404	
242	2.41	271.57346	1100.66417	-2.46008	287.53083	917.15738	0.51361	386.57908	1088.59649	3.56984	435.59092	721.96902	-74.26902	435.91647	736.69016	97.4177	298.20808	769.49214	4.80925	393.62798	430.75874	-155.4432	388.76433	380.76268	-216.60054	480.39257	390.62863	-122.03844	410.8709	279.09061	-137.07119	389.46955	368.75384	-124.45793	319.84068	159.52163	-183.33304	295.2281	68.57418	-145.65087	316.51206	71.36341	-71.49879	245.55059	20.42071	-109.67724	421.77692	30.68918	-135.32357	416.91188	16.6248	-85.13766	381.47792	17.15718	-176.36952	405.44494	446.61829	168.92336	409.1539	354.80915	228.37722	483.05239	412.60285	123.5839	454.96548	283.64693	121.61123	401.81178	361.06247	130.44703	308.17986	148.19033	156.51475	293.6567	62.02604	112.11028	321.80653	69.38648	39.47006	250.896	19.54416	68.41038	423.74926	28.56575	108.17064	414.0452	13.95672	52.66727	384.03685	15.40896	147.46655	375.64148	687.50754	79.67449	375.39903	676.54431	-48.18535	398.26771	364.08098	83.1757	389.82625	362.67992	-77.85342	435.75369	729.32959	11.57434	305.28714	57.65014	75.59076	303.60326	62.06559	-109.40431	
243	2.42	271.60294	1100.59151	-2.45175	287.71619	917.09121	0.49287	386.61182	1088.61289	3.67349	435.83472	721.95231	-74.25474	436.17075	736.69957	97.44005	298.46343	769.4753	4.80633	393.77117	430.73447	-155.43262	388.86179	380.74815	-216.57654	480.51183	390.57029	-122.03035	410.94599	279.06315	-137.06335	389.58071	368.73041	-124.43619	319.86864	159.52613	-183.32289	295.23785	68.58252	-145.63881	316.51828	71.36083	-71.48868	245.5585	20.42917	-109.67257	421.78159	30.69012	-135.31717	416.9125	16.61477	-85.1362	381.47937	17.16247	-176.36548	405.57713	446.60421	168.92113	409.25796	354.79177	228.36744	483.13688	412.56421	123.55109	455.01996	283.62252	121.57829	401.88716	361.04885	130.43783	308.19974	148.19711	156.50997	293.66074	62.0329	112.10748	321.80811	69.3883	39.47056	250.89611	19.55436	68.40959	423.75133	28.5653	108.1683	414.04597	13.96022	52.66608	384.03516	15.41036	147.46494	375.89839	687.50739	79.70658	375.64814	676.52478	-48.1584	398.32931	364.06911	83.16765	389.94433	362.65193	-77.83233	436.00274	729.32594	11.59266	305.28836	57.65492	75.5898	303.60828	62.0693	-109.39349	
244	2.43	271.64192	1100.51778	-2.43444	287.90758	917.02824	0.47179	386.65728	1088.62927	3.78022	436.07713	721.93758	-74.23682	436.41809	736.71159	97.46788	298.71501	769.4617	4.79874	393.92648	430.71322	-155.42563	388.96126	380.73252	-216.55124	480.63038	390.5136	-122.01718	411.02232	279.03526	-137.0511	389.69096	368.70707	-124.41213	319.89612	159.53205	-183.31313	295.24528	68.59177	-145.6258	316.52264	71.35811	-71.47781	245.56776	20.43809	-109.6661	421.78507	30.69029	-135.31007	416.91117	16.60258	-85.13377	381.48147	17.16775	-176.36143	405.70305	446.5917	168.91862	409.35699	354.7739	228.35726	483.21829	412.52551	123.52009	455.07034	283.59754	121.54694	401.95916	361.0351	130.42882	308.21656	148.2059	156.50688	293.66605	62.04123	112.10551	321.81074	69.39049	39.47169	250.89327	19.5658	68.4093	423.75458	28.56529	108.16614	414.04648	13.96528	52.66517	384.03603	15.41148	147.46477	376.14825	687.50983	79.742	375.89433	676.50738	-48.12932	398.3883	364.05731	83.15975	390.06004	362.62468	-77.80882	436.24761	729.32458	11.61553	305.29085	57.66064	75.58958	303.61121	62.0734	-109.38187	
